# xmcd CD database file generated by Grip 2.94
# 
# Track frame offsets:
#       150
#       11240
#       24455
#       35333
#       48345
#       59855
#       71080
#       83125
#       102745
#       113165
#       125768
#       136238
#       148633
#       159808
#       172875
#       184558
#       199008
#       211033
#       223240
#       235643
#       250495
#       265370
# 
# Disc length: 3720 seconds
# 
# Revision: 3
# Processed by: cddbd v1.4b41PL1 Copyright (c) Steve Scherf et al.
# Submitted via: Grip 2.94
# 
DISCID=440e8616
DTITLE=The Mills Brothers - Two On One
DYEAR=1900
DGENRE=
TTITLE0=Between Winston-Salem And Nashville,Tennessee
TTITLE1=Jealous Heart
TTITLE2=I Can't Stop Loving You
TTITLE3=Ramblin' Rose
TTITLE4=Tennessee Waltz
TTITLE5=Red River Valley
TTITLE6=You Are My Sunshine
TTITLE7=El Paso
TTITLE8=Mexicali Rose
TTITLE9=Cold, Cold Heart
TTITLE10=San Antonio Rose
TTITLE11=Nevertheless
TTITLE12=Sawdust Heart
TTITLE13=Fairy Tales
TTITLE14=Dinah
TTITLE15=My Gal Sal
TTITLE16=Help Yourself To Some Tomorrow
TTITLE17=Coney Island Washboard
TTITLE18=Daisies Never Tell
TTITLE19=Daddy's Little Girl
TTITLE20=Solitude
TTITLE21=I Can't Give You Anthing But Love
EXTD=RCD-8232\n----------------\n\n             The Mills Bros. Two On One\
EXTD=n----------------------------------------\nDouble CD On 1 CD\n\n  1. C
EXTD=ountry Music's Greatest Hits -Tracks:1-11\n  2. Golden Anniversary - T
EXTD=racks:12-22\n\n-----------------------------------\nRanwood Records Inc.
EXTT0=
EXTT1=
EXTT2=
EXTT3=
EXTT4=
EXTT5=
EXTT6=
EXTT7=
EXTT8=
EXTT9=
EXTT10=
EXTT11=
EXTT12=
EXTT13=
EXTT14=
EXTT15=
EXTT16=
EXTT17=
EXTT18=
EXTT19=
EXTT20=
EXTT21=
PLAYORDER=
